<?xml version="1.0" encoding="utf-8"?>
<!-- Generator: Adobe Illustrator 18.1.1, SVG Export Plug-In . SVG Version: 6.00 Build 0)  -->
<svg version="1.0" xmlns="http://www.w3.org/2000/svg" xmlns:xlink="http://www.w3.org/1999/xlink" x="0px" y="0px"
	 viewBox="0 0 792 792" enable-background="new 0 0 792 792" xml:space="preserve">
<g id="Layer_1">
	<rect id="Yellow_square" x="179.8" y="179.7" fill="#F3DF49" width="432.3" height="432.3"/>
	<g id="JS" transform="translate(0.000000,1052.000000) scale(0.100000,-0.100000)">
		<path fill="#202020" d="M5045.2,6782.5c-156.2-12.4-287.3-68.6-384.8-165.3C4560,6517.5,4512,6396,4512,6241.9
			c0-230.6,94.7-391.8,305.9-519.6c53.7-32.2,126.9-67.4,253.4-121.9c172.4-74,236.4-109.1,277.3-152.9
			c50.4-54.1,64.5-140.5,32.7-206.7c-6.2-12.8-22.3-34.3-36.8-48.8c-48.8-49.2-125.7-75.2-221.1-75.2
			c-161.2,0-281.5,66.1-378.2,209.1c-13.2,19-25.2,34.7-26.9,34.7c-3.7,0-318.3-181.5-324.9-187.7c-4.1-3.7-0.8-12.4,15.3-38.9
			c125.7-211.6,322-335.6,587.3-371.2c69.4-9.5,199.6-9.1,266.2,0c167,23.6,292.2,78.9,389.4,173.2
			c103.3,99.6,154.2,228.6,154.2,390.2c0,103.3-16.9,183.9-55.4,263.7c-26.5,54.6-52.9,91.3-98.4,137.6
			c-87.2,88.5-200.1,155.4-425.3,252.1c-170.3,73.2-227.3,104.6-264.9,144.7c-36,38.4-51.3,83.5-47.9,139.7
			c2.9,44.6,15.3,74.8,42.6,104.2c39.3,42.6,84.7,60.3,155,59.9c79.8,0,131.4-20.7,183.9-73.6c18.6-18.2,42.6-47.5,53.7-65.3
			c12.8-20.3,22.3-31.4,25.6-30.2c10.7,4.5,311.2,198.8,311.2,201.7c0,1.7-15.3,25.6-33.9,53.7c-39.7,59.5-111.2,133.9-160.4,166.6
			c-90.9,60.3-188.1,91.3-316.2,100.9C5112.6,6787,5104.4,6787,5045.2,6782.5z"/>
		<path fill="#202020" d="M3758.5,6031.5l-1.2-730.8l-9.1-34.3c-12-45.1-26-71.9-50.8-96.7c-34.7-34.7-79.4-49.2-153.8-49.6
			c-106.2-0.4-169.9,44.6-243.9,171.1c-12,19.8-22.7,36-24,35.5c-1.7-0.8-76.5-45.9-166.2-100l-163.3-99.2l12.4-24.8
			c74-147.6,202.1-259.2,356.3-310.4c162.9-54.1,372-49.2,525.3,12.4c183.9,74.4,291.8,228.2,320.3,456.7
			c2.5,23.1,4.1,281.5,4.1,767.6v732.8h-202.5h-202.1L3758.5,6031.5z"/>
	</g>
	<g id="Triangles">
		<g id="Blue_triangles">
			<polygon fill="#3580C3" points="266.3,222.9 223,222.9 266.3,179.7 309.5,222.9 			"/>
			<polygon fill="#3580C3" points="223,352.6 179.7,352.6 223,309.4 266.3,352.6 			"/>
			<polygon fill="#3580C3" points="179.7,395.9 179.7,352.6 223,395.9 179.7,439.2 			"/>
			<polygon fill="#3580C3" points="266.3,309.4 266.3,266.1 309.5,309.4 266.3,352.6 			"/>
			<polygon fill="#3580C3" points="395.9,179.7 439.2,179.7 395.9,222.9 352.7,179.7 			"/>
			<polygon fill="#3580C3" points="179.7,136.4 223,136.4 179.7,179.7 136.5,136.4 			"/>
		</g>
		<g id="Green_triangles">
			<polygon fill="#45A547" points="223.2,266.2 223.2,309.4 179.9,266.2 223.2,222.9 			"/>
			<polygon fill="#45A547" points="352.9,223 352.9,266.3 309.6,223 352.9,179.7 			"/>
			<polygon fill="#45A547" points="352.7,309.4 309.5,309.4 352.7,266.2 396,309.4 			"/>
			<polygon fill="#45A547" points="223.1,439.2 266.3,439.2 223.1,482.5 179.8,439.2 			"/>
			<polygon fill="#45A547" points="439.3,222.9 439.3,266.2 396,222.9 439.3,179.6 			"/>
			<polygon fill="#45A547" points="266.3,136.5 309.6,136.5 266.3,179.7 223.1,136.5 			"/>
			<polygon fill="#45A547" points="136.5,179.7 136.5,223 93.3,179.7 136.5,136.5 			"/>
		</g>
		<g id="Red_triangles">
			<polygon fill="#DB3227" points="179.8,223 179.8,179.7 223.1,223 179.8,266.3 			"/>
			<polygon fill="#DB3227" points="309.6,266.2 266.4,266.2 309.6,222.9 352.9,266.2 			"/>
			<polygon fill="#DB3227" points="266.3,309.4 266.3,352.7 223.1,309.4 266.3,266.2 			"/>
			<polygon fill="#DB3227" points="223.1,352.7 266.3,352.7 223.1,396 179.8,352.7 			"/>
			<polygon fill="#DB3227" points="309.5,352.7 309.5,396 266.2,352.7 309.5,309.4 			"/>
			<polygon fill="#DB3227" points="352.9,136.5 352.9,179.7 309.6,136.5 352.9,93.2 			"/>
			<polygon fill="#DB3227" points="136.5,266.2 93.3,266.2 136.5,222.9 179.8,266.2 			"/>
			<polygon fill="#DB3227" points="136.5,93.2 179.8,93.2 136.5,136.5 93.3,93.2 			"/>
		</g>
		<g id="Yellow_triangles">
			<polygon fill="#F3DF48" points="396,179.7 352.7,179.7 396,136.5 439.3,179.7 			"/>
			<polygon fill="#F3DF48" points="266.3,136.5 223.1,136.5 266.3,93.2 309.6,136.5 			"/>
			<polygon fill="#F3DF48" points="223.1,179.7 179.8,179.7 223.1,136.5 266.3,179.7 			"/>
			<polygon fill="#F3DF49" points="179.8,309.4 179.8,352.7 136.5,309.4 179.8,266.2 			"/>
		</g>
		<g id="White_triangles">
			<polygon fill="#FFFFFF" points="223.1,179.7 266.3,179.7 223.1,223 179.8,179.7 			"/>
			<polygon fill="#FFFFFF" points="352.7,223 352.7,179.7 396,223 352.7,266.3 			"/>
			<polygon fill="#FFFFFF" points="223.2,266.2 223.2,222.9 266.5,266.2 223.2,309.4 			"/>
			<polygon fill="#FFFFFF" points="309.6,266.2 352.9,266.2 309.6,309.4 266.4,266.2 			"/>
			<polygon fill="#FFFFFF" points="179.8,309.4 179.8,266.2 223.1,309.4 179.8,352.7 			"/>
			<polygon fill="#FFFFFF" points="266.3,396 266.3,439.2 223.1,396 266.3,352.7 			"/>
			<polygon fill="#FFFFFF" points="482.5,179.7 525.8,179.7 482.5,223 439.3,179.7 			"/>
			<polygon fill="#FFFFFF" points="179.8,222.9 179.8,266.2 136.5,222.9 179.8,179.6 			"/>
			<polygon fill="#FFFFFF" points="223.1,93.2 223.1,136.5 179.8,93.2 223.1,50 			"/>
			<polygon fill="#FFFFFF" points="179.8,396 179.8,439.2 136.5,396 179.8,352.7 			"/>
		</g>
	</g>
</g>
</svg>
